<?xml version="1.0" encoding="iso-8859-1"?>
<!-- Generator: Adobe Illustrator 19.0.0, SVG Export Plug-In . SVG Version: 6.00 Build 0)  -->
<svg version="1.1" id="Capa_1" xmlns="http://www.w3.org/2000/svg" xmlns:xlink="http://www.w3.org/1999/xlink" x="0px" y="0px"
	 viewBox="0 0 512 512" style="enable-background:new 0 0 512 512;" xml:space="preserve">
<path style="fill:#5A6B96;" d="M86.578,403.396v-21.815c0-8.918,7.251-16.172,16.163-16.172h49.995
	c8.913,0,16.164,7.255,16.164,16.172v21.815H86.578z"/>
<rect x="64.843" y="399.38" style="fill:#FF6BA6;" width="382.313" height="104.589"/>
<path style="fill:#5A6B96;" d="M343.1,403.396v-21.815c0-8.918,7.251-16.172,16.164-16.172h49.995
	c8.912,0,16.163,7.255,16.163,16.172v21.815H343.1z"/>
<path style="fill:#D4D4D4;" d="M220.933,403.396V193.685l2.699,0.988c10.349,3.788,21.239,5.71,32.368,5.71
	c11.129,0,22.02-1.922,32.368-5.71l2.699-0.988v209.711H220.933z"/>
<path style="fill:#FF6BA6;" d="M256,204.398c-11.602,0-22.957-2.004-33.749-5.955c-38.541-14.107-64.435-51.171-64.435-92.228
	c0-54.138,44.045-98.184,98.184-98.184s98.184,44.045,98.184,98.184c0,41.057-25.894,78.121-64.435,92.228
	C278.957,202.395,267.602,204.398,256,204.398z"/>
<path d="M152.737,357.376h-49.995c-13.34,0-24.195,10.857-24.195,24.204v9.768H66.851c-5.544,0-10.039,4.496-10.039,10.039v100.574
	c0,5.544,4.496,10.039,10.039,10.039h378.298c5.544,0,10.039-4.496,10.039-10.039V401.388c0-5.544-4.496-10.039-10.039-10.039
	h-11.696v-9.768c0-13.346-10.854-24.204-24.195-24.204h-49.995c-13.341,0-24.196,10.857-24.196,24.204v9.768h-35.97V203.301
	c38.024-16.909,63.117-55.056,63.117-97.086C362.215,47.648,314.567,0,256,0S149.785,47.648,149.785,106.215
	c0,42.03,25.093,80.176,63.117,97.086v188.048h-35.971v-9.768C176.931,368.234,166.078,357.376,152.737,357.376z M98.625,381.581
	c0-2.275,1.846-4.125,4.116-4.125h49.995c2.27,0,4.117,1.851,4.117,4.125v9.768H98.626L98.625,381.581L98.625,381.581z
	 M435.11,491.922H76.89v-80.494h11.696h78.306h56.049h66.117h56.049h78.306h11.696v80.494H435.11z M256,212.43
	c7.802,0,15.503-0.841,23.02-2.504v181.423h-46.04V209.926C240.497,211.589,248.198,212.43,256,212.43z M355.147,381.581
	c0-2.275,1.847-4.125,4.117-4.125h49.995c2.27,0,4.116,1.851,4.116,4.125v9.768h-58.227v-9.768H355.147z M169.864,106.215
	c0-47.497,38.64-86.136,86.136-86.136s86.136,38.64,86.136,86.136c0,36.023-22.717,68.54-56.529,80.916
	c-9.462,3.464-19.424,5.22-29.608,5.22c-10.184,0-20.146-1.757-29.608-5.22C192.58,174.755,169.864,142.238,169.864,106.215z"/>
<path d="M285.195,441.635h-90.347c-5.544,0-10.039,4.496-10.039,10.039c0,5.544,4.496,10.039,10.039,10.039h90.347
	c5.544,0,10.039-4.496,10.039-10.039C295.234,446.131,290.74,441.635,285.195,441.635z"/>
<path d="M317.152,441.635c-12.919,0-12.941,20.078,0,20.078C330.071,461.714,330.092,441.635,317.152,441.635z"/>
<g>
</g>
<g>
</g>
<g>
</g>
<g>
</g>
<g>
</g>
<g>
</g>
<g>
</g>
<g>
</g>
<g>
</g>
<g>
</g>
<g>
</g>
<g>
</g>
<g>
</g>
<g>
</g>
<g>
</g>
</svg>
